<svg width="109" height="40" fill="none" xmlns="http://www.w3.org/2000/svg"><g clip-path="url(#clip0_37_53)"><path d="M12.024 39.983c-3.248-.133-5.905-1.048-7.983-2.747-.397-.325-1.341-1.298-1.658-1.709-.843-1.09-1.416-2.153-1.798-3.33-1.175-3.626-.57-8.384 1.73-13.606 1.971-4.47 5.012-8.905 10.316-15.046C13.412 2.642 15.739 0 15.754 0c.005 0-.121.226-.28.502-1.38 2.378-2.56 5.18-3.203 7.606-1.033 3.892-.908 7.232.365 9.822.878 1.785 2.383 3.33 4.076 4.185 2.964 1.495 7.303 1.618 12.601.361.365-.087 18.442-5.028 40.172-10.98C91.215 5.542 108.997.675 109 .679c.006.005-50.485 22.252-76.695 33.793-4.151 1.828-5.261 2.289-7.213 2.995-4.988 1.803-9.456 2.664-13.068 2.516z" fill="#000"/></g><defs><clipPath id="clip0_37_53"><path fill="#fff" d="M0 0h109v40H0z"/></clipPath></defs></svg>